<svg width="478" height="481" viewBox="0 0 478 481" fill="none" xmlns="http://www.w3.org/2000/svg">
<path d="M178.881 445.664L179.212 463.161L196.708 462.83L321.186 460.475C399.597 458.991 461.958 394.224 460.475 315.814C458.991 237.403 394.224 175.042 315.814 176.525C237.403 178.009 175.042 242.776 176.525 321.186L178.881 445.664Z" stroke="white" stroke-width="35"/>
<rect x="159" y="284" width="160" height="35" fill="black"/>
<rect x="284" y="161" width="35" height="158" fill="black"/>
<path d="M284 301.5H301.5V284V159.5C301.5 81.0756 237.924 17.5 159.5 17.5C81.0756 17.5 17.5 81.0756 17.5 159.5C17.5 237.924 81.0756 301.5 159.5 301.5H284Z" stroke="white" stroke-width="35"/>
<rect x="159" y="284" width="160" height="35" fill="white"/>
<rect x="284" y="161" width="35" height="158" fill="white"/>
<path d="M301 183C284.585 183 268.33 186.233 253.165 192.515C237.999 198.797 224.219 208.004 212.612 219.612C201.004 231.219 191.797 244.999 185.515 260.165C179.233 275.33 176 291.585 176 308L301 308V183Z" fill="white"/>
</svg>
