<svg width="113" height="85" viewBox="0 0 113 85" fill="none" xmlns="http://www.w3.org/2000/svg">
<path d="M0.125 85V24H16.125L16.375 33.125C18.3333 30.5 20.875 28.2083 24 26.25C27.1667 24.25 31.2083 23.25 36.125 23.25C42.0833 23.25 46.6458 25.125 49.8125 28.875C53.0208 32.625 54.625 38.1042 54.625 45.3125V85H38.25V47.375C38.25 45.2083 37.9583 43.3125 37.375 41.6875C36.8333 40.0208 35.9583 38.75 34.75 37.875C33.5833 36.9583 32.0208 36.5 30.0625 36.5C27.0625 36.5 24.4792 37.2708 22.3125 38.8125C20.1458 40.3125 18.25 42.1458 16.625 44.3125V85H0.125Z" fill="#EEEEEE"/>
<path d="M77.5 46.5L69.0625 40.25L79.375 26.25L62.9375 21.5625L66.375 11.4375L82.25 16.8125V0.375H92.9375V16.8125L108.812 11.4375L112.188 21.5625L95.75 26.25L106.312 40.1875L97.75 46.5L87.375 32L77.5 46.5Z" fill="#B6E9E9"/>
</svg>
